<svg version="1.0"
  xmlns="http://www.w3.org/2000/svg" width="64px" height="64px" viewBox="0 0 1280.000000 1276.000000">
  <g transform="translate(0.000000,1276.000000) scale(0.100000,-0.100000)" fill="#189644" stroke="none">
    <path d="M6949 12756 c-16 -17 -436 -30 -1019 -31 -624 0 -649 -1 -765 -23
-296 -55 -481 -143 -635 -302 -193 -198 -266 -433 -291 -930 -10 -212 -7 -340
21 -965 7 -135 10 -599 8 -1120 l-3 -890 -1510 -2 c-1509 -2 -1635 -5 -1831
-38 -512 -88 -805 -362 -869 -814 -8 -56 -16 -243 -20 -451 -3 -195 -10 -461
-16 -590 -19 -476 -22 -749 -11 -883 6 -72 16 -220 22 -327 28 -480 77 -631
269 -820 276 -272 692 -361 1543 -332 1475 52 2060 55 2333 11 39 -6 76 -16
83 -21 9 -8 12 -299 12 -1392 1 -1375 5 -1585 35 -1790 90 -605 393 -920 969
-1008 43 -6 432 -14 996 -19 509 -5 972 -12 1030 -15 151 -9 398 27 553 80
396 136 610 469 673 1050 18 168 21 593 5 866 -26 453 -30 633 -32 1415 l-1
830 53 8 c30 4 783 7 1674 6 1445 -1 1629 0 1705 14 217 41 382 129 526 279
130 136 204 286 243 490 28 145 31 203 42 627 4 207 18 516 29 686 31 461 35
601 21 749 -38 405 -59 531 -118 700 -141 405 -403 621 -822 675 -58 8 -597
11 -1712 11 -1019 0 -1630 4 -1634 10 -3 5 -7 760 -8 1677 -3 1665 -3 1668
-24 1763 -48 211 -121 354 -245 479 -181 184 -400 273 -778 317 -148 17 -490
31 -501 20z"/>
  </g>
</svg>
