<?xml version="1.0" encoding="utf-8"?>
<svg viewBox="0 0 500 500" width="500" height="500"
  xmlns="http://www.w3.org/2000/svg">
  <svg xmlns="http://www.w3.org/2000/svg" data-name="Layer 1" viewBox="379.9999980584335 200 1239.9999819415677 1600" x="0" y="0" height="500" width="500" class="icon-icon-0" data-fill-palette-color="accent" id="icon-0" transform="matrix(0.05437895251858619, 0, 0, 0.05437895251858619, -20.66400195706275, -10.875790134552986)">
    <path d="M950.716 200c-91.001 362.781-261.027 349.741-486.733 727.179C279.359 1235.919 392.65 1734.28 868.369 1800a186.491 186.491 0 0 1-30.141-12.275C664.586 1696.755 540.166 1475.877 619.152 1270.186c14.071-36.644 55.943-129.201 165.079-181.924-80.448 145.714-75.52 248.293-8.584 373.522-60.886-136.906-4.06-250.293 37.416-319.067 66.566-110.376 151.276-225.686 34.333-514.433 38.316 30.545 323.8 239.097 165.275 570.967-73.274 153.398-145.983 332.327 0.922 542.082-71.26-185.734-40.197-306.996 54.06-452.893 138.575-214.494 80.62-404.512 65.876-462.636 100.173 123.186 152.664 296.074 115 457.669 22.928-48.043 49.984-80.851 71.206-96.717 101.764 172.971 93.666 446.052-93.36 571.132 238.39-100.479 393.625-343.439 393.625-627.21C1620 759.697 1294.804 516.219 950.716 200ZM517.428 1302.442c0-0.092 0.001-0.184 0.002-0.277 0 0.971 0.008 1.939 0.012 2.909C517.439 1304.196 517.428 1303.32 517.428 1302.442Z" fill="#27272a" data-fill-palette-color="accent"/>
  </svg>
</svg>