<?xml version="1.0" encoding="utf-8"?>
<svg viewBox="0 0 500 500" xmlns="http://www.w3.org/2000/svg">
  <g transform="matrix(1, 0, 0, 1, -480.4146728515625, -92.99996185302737)">
    <svg viewBox="0 0 396 136" data-background-color="#e4e4e7" preserveAspectRatio="xMidYMid meet" height="686" width="2000" xmlns="http://www.w3.org/2000/svg">
      <g id="tight-bounds" transform="matrix(1,0,0,1,0.2400000000000091,-0.20356200769251132)">
        <svg viewBox="0 0 395.52 136.407124015385" height="136.407124015385" width="395.52">
          <g>
            <svg viewBox="0 0 660.4542639197393 227.77777782410422" height="136.407124015385" width="395.52">
              <g transform="matrix(1,0,0,1,264.9342639197394,82.41047848859934)">
                <svg viewBox="0 0 395.52 62.956820846905536" height="62.956820846905536" width="395.52">
                  <g id="textblocktransform">
                    <svg viewBox="0 0 395.52 62.956820846905536" height="62.956820846905536" width="395.52" id="textblock">
                      <g>
                        <svg viewBox="0 0 395.52 62.956820846905536" height="62.956820846905536" width="395.52">
                          <g transform="matrix(1,0,0,1,0,0)">
                            <svg width="395.52" viewBox="3 -36.3 230.22 36.65" height="62.956820846905536" data-palette-color="#27272a"/>
                          </g>
                        </svg>
                      </g>
                    </svg>
                  </g>
                </svg>
              </g>
              <g transform="matrix(0.72669, 0, 0, 0.72669, 158.219879, 31.126873)">
                <svg viewBox="0 0 227.77777782410422 227.77777782410422" height="227.77777782410422" width="227.77777782410422">
                  <g>
                    <svg viewBox="0 0 227.77777782410422 227.77777782410422" height="227.77777782410422" width="227.77777782410422">
                      <g transform="matrix(1,0,0,1,72.28089326471789,60.201151811043154)">
                        <svg viewBox="0 0 83.21599129466843 107.37547420201791" height="107.37547420201791" width="83.21599129466843">
                          <g>
                            <svg xmlns="http://www.w3.org/2000/svg" data-name="Layer 1" viewBox="379.9999980584335 200 1239.9999819415677 1600" x="0" y="0" height="107.37547420201791" width="83.21599129466843" class="icon-cg-0" data-fill-palette-color="accent" id="cg-0">
                              <path d="M950.716 200c-91.001 362.781-261.027 349.741-486.733 727.179C279.359 1235.919 392.65 1734.28 868.369 1800a186.491 186.491 0 0 1-30.141-12.275C664.586 1696.755 540.166 1475.877 619.152 1270.186c14.071-36.644 55.943-129.201 165.079-181.924-80.448 145.714-75.52 248.293-8.584 373.522-60.886-136.906-4.06-250.293 37.416-319.067 66.566-110.376 151.276-225.686 34.333-514.433 38.316 30.545 323.8 239.097 165.275 570.967-73.274 153.398-145.983 332.327 0.922 542.082-71.26-185.734-40.197-306.996 54.06-452.893 138.575-214.494 80.62-404.512 65.876-462.636 100.173 123.186 152.664 296.074 115 457.669 22.928-48.043 49.984-80.851 71.206-96.717 101.764 172.971 93.666 446.052-93.36 571.132 238.39-100.479 393.625-343.439 393.625-627.21C1620 759.697 1294.804 516.219 950.716 200ZM517.428 1302.442c0-0.092 0.001-0.184 0.002-0.277 0 0.971 0.008 1.939 0.012 2.909C517.439 1304.196 517.428 1303.32 517.428 1302.442Z" fill="#27272a" data-fill-palette-color="accent"/>
                            </svg>
                          </g>
                        </svg>
                      </g>
                      <g id="text-0">
                        <path d="M7.944 81.297l1.523-5.002 2.189 0.666-1.513 4.973 0.623-0.023 7.883 2.399-0.187 0.613c-0.271 0.889-0.491 1.392-0.662 1.511-0.171 0.118-0.632 0.063-1.385-0.167v0l-16.231-4.94 2.277-7.483 2.093 0.637-1.612 5.294 0.682-0.038 3.766 1.146z" fill="#27272a" data-fill-palette-color="accent"/>
                        <path d="M13.391 57.957c-0.195 0.365-0.506 0.606-0.931 0.724-0.428 0.124-0.828 0.087-1.198-0.111-0.371-0.199-0.611-0.504-0.72-0.918-0.113-0.407-0.071-0.792 0.124-1.157 0.195-0.365 0.494-0.612 0.895-0.743 0.404-0.137 0.792-0.106 1.162 0.092 0.371 0.199 0.623 0.511 0.756 0.937 0.137 0.42 0.107 0.812-0.088 1.176zM24.923 65.423v0l-10.909-5.851c0.542-1.01 0.914-1.568 1.117-1.675 0.203-0.106 0.646 0.023 1.327 0.389v0l10.91 5.85c-0.545 1.016-0.917 1.574-1.118 1.675-0.203 0.106-0.646-0.023-1.327-0.388z" fill="#27272a" data-fill-palette-color="accent"/>
                        <path d="M29.177 43.264l8.043 6.554c-0.728 0.894-1.204 1.376-1.428 1.447-0.224 0.071-0.636-0.138-1.235-0.626v0l-9.518-7.756c0.715-0.878 1.159-1.369 1.332-1.473 0.173-0.104 0.411-0.032 0.716 0.216v0l0.284-1.894c0.313-0.384 0.639-0.704 0.979-0.961v0l0.287-0.304c0.757 0.617 1.161 1.038 1.214 1.265 0.051 0.217-0.157 0.611-0.624 1.184v0l-0.77 2.088z" fill="#27272a" data-fill-palette-color="accent"/>
                        <path d="M50.861 33.747v0c0.905-0.735 1.768-1.55 2.59-2.443v0l1.269 1.563c-1.053 1.231-1.841 2.058-2.362 2.481-0.521 0.423-0.967 0.724-1.337 0.903-0.376 0.183-0.717 0.316-1.025 0.4-0.308 0.084-0.633 0.064-0.977-0.058-0.335-0.121-0.627-0.251-0.878-0.388-0.25-0.146-0.566-0.418-0.95-0.814v0c-0.52-0.522-1.042-1.106-1.568-1.754-0.526-0.647-0.966-1.19-1.321-1.626v0l-0.846-1.043c-0.769-0.948-1.219-1.561-1.35-1.839-0.135-0.274-0.283-0.574-0.442-0.899-0.154-0.329-0.225-0.595-0.214-0.796 0.016-0.196 0.04-0.435 0.075-0.715 0.029-0.277 0.122-0.522 0.279-0.738v0c0.515-0.646 1.018-1.167 1.507-1.565 0.495-0.402 0.981-0.67 1.457-0.803 0.477-0.134 0.904-0.167 1.283-0.098 0.373 0.072 0.784 0.272 1.232 0.598v0c0.704 0.512 1.483 1.294 2.339 2.346v0l1.158 1.314-4.276 3.642 0.538 0.323c1.069 1.316 1.816 2.107 2.241 2.373 0.426 0.266 0.952 0.144 1.578-0.364zM47.266 27.206c-0.605-0.723-1.081-1.17-1.43-1.342-0.349-0.171-0.762-0.062-1.241 0.327-0.484 0.393-0.697 0.767-0.637 1.12 0.05 0.352 0.4 0.929 1.05 1.729v0l0.201 0.57 2.622-2.129z" fill="#27272a" data-fill-palette-color="accent"/>
                        <path d="M66.364 25.582l-0.912-1.796c1.459-0.542 2.409-0.926 2.85-1.149 0.448-0.227 0.718-0.414 0.811-0.56 0.099-0.149 0.164-0.285 0.194-0.406 0.024-0.118-0.008-0.3-0.095-0.545v0c-0.114-0.345-0.296-0.763-0.544-1.253v0c-0.184-0.363-1.229-0.715-3.136-1.055v0c-0.716-0.123-1.438-0.362-2.165-0.715-0.727-0.354-1.218-0.781-1.472-1.283-0.258-0.508-0.442-0.886-0.553-1.134-0.108-0.257-0.195-0.593-0.26-1.009-0.069-0.421-0.039-0.767 0.089-1.037v0c0.372-0.751 1.123-1.414 2.254-1.988v0l2.965-0.809c0.33 0.95 0.462 1.503 0.397 1.658-0.063 0.161-0.212 0.301-0.448 0.421-0.242 0.123-0.535 0.241-0.88 0.356v0l-0.972 0.288c-0.629 0.319-0.942 0.653-0.941 1.001v0c-0.001 0.267 0.088 0.579 0.27 0.936 0.178 0.351 0.592 0.612 1.242 0.784 0.641 0.169 1.327 0.3 2.058 0.393 0.731 0.093 1.456 0.299 2.174 0.619 0.724 0.317 1.22 0.742 1.49 1.274 0.273 0.538 0.47 0.948 0.59 1.23 0.129 0.284 0.248 0.676 0.357 1.176 0.112 0.506 0.118 0.929 0.017 1.269-0.095 0.337-0.316 0.704-0.663 1.1-0.352 0.399-0.762 0.717-1.227 0.954-0.466 0.236-0.873 0.416-1.22 0.539-0.351 0.132-0.764 0.27-1.24 0.412-0.472 0.148-0.816 0.258-1.03 0.329z" fill="#27272a" data-fill-palette-color="accent"/>
                        <path d="M84.724 3.815l2.483-0.675c0.256 0.942 0.33 1.548 0.22 1.816-0.114 0.277-0.594 0.53-1.438 0.76v0l-0.716 0.195 0.384 0.56 1.337 4.917c0.383 1.407 0.701 2.357 0.954 2.85 0.245 0.488 0.551 0.722 0.918 0.7v0l1.894-0.516 0.526 1.934-1.977 0.675c-0.831 0.226-1.401 0.289-1.709 0.19-0.313-0.091-0.548-0.167-0.705-0.229-0.158-0.063-0.331-0.233-0.519-0.513-0.182-0.281-0.321-0.51-0.419-0.687-0.104-0.176-0.238-0.512-0.401-1.009-0.158-0.505-0.282-0.921-0.371-1.248v0l-1.756-6.458 0.028-0.672-1.315 0.357-0.569-2.09 1.316-0.358-0.448-0.869-0.344-1.266c1.106-0.301 1.769-0.421 1.989-0.362 0.218 0.053 0.42 0.42 0.605 1.1v0z" fill="#27272a" data-fill-palette-color="accent"/>
                        <path d="M104.153 7.42v0c0 0-0.035-0.531-0.103-1.594v0c-0.069-1.062-0.092-1.774-0.068-2.136 0.031-0.362 0.069-0.721 0.113-1.077 0.045-0.356 0.109-0.619 0.193-0.788 0.084-0.169 0.193-0.369 0.328-0.602 0.128-0.233 0.283-0.399 0.467-0.499 0.184-0.094 0.402-0.199 0.652-0.318v0c0.415-0.204 1.035-0.332 1.861-0.386 0.819-0.053 1.488 0.002 2.009 0.165 0.514 0.164 0.921 0.361 1.221 0.593 0.301 0.232 0.535 0.699 0.702 1.401 0.161 0.703 0.273 1.328 0.337 1.875 0.063 0.546 0.125 1.29 0.186 2.23v0l0.125 1.929c0.071 1.096 0.092 1.825 0.061 2.187-0.024 0.362-0.058 0.724-0.102 1.087-0.051 0.363-0.115 0.629-0.193 0.798-0.084 0.175-0.193 0.383-0.327 0.623-0.127 0.239-0.286 0.413-0.475 0.52-0.197 0.108-0.421 0.221-0.671 0.339v0c-0.394 0.216-0.936 0.346-1.626 0.391-0.683 0.044-1.21 0.052-1.579 0.022-0.375-0.023-0.707-0.114-0.996-0.272-0.295-0.151-0.543-0.298-0.742-0.441-0.2-0.143-0.376-0.393-0.528-0.75-0.152-0.357-0.271-0.662-0.356-0.915-0.084-0.253-0.156-0.669-0.213-1.25v0c-0.111-0.978-0.203-2.022-0.276-3.132zM107.789 2.199v0c-0.771 0.05-1.225 0.396-1.36 1.036-0.129 0.634-0.143 1.718-0.043 3.255 0.1 1.529 0.174 2.52 0.224 2.972 0.043 0.453 0.132 0.929 0.267 1.43 0.141 0.5 0.332 0.814 0.571 0.941 0.24 0.134 0.566 0.187 0.979 0.161v0c0.771-0.05 1.22-0.409 1.346-1.077 0.127-0.661 0.14-1.762 0.04-3.305-0.1-1.536-0.171-2.527-0.214-2.973-0.049-0.445-0.14-0.905-0.273-1.378-0.133-0.474-0.319-0.774-0.558-0.902-0.247-0.133-0.573-0.187-0.979-0.16z" fill="#27272a" data-fill-palette-color="accent"/>
                        <path d="M130.612 4.72l-1.493 10.267c-1.141-0.166-1.799-0.327-1.976-0.482-0.176-0.156-0.208-0.616-0.097-1.382v0l1.768-12.149c1.121 0.163 1.77 0.292 1.948 0.386 0.178 0.094 0.239 0.336 0.182 0.725v0l1.771-0.729c0.49 0.071 0.932 0.187 1.327 0.347v0l0.408 0.091c-0.141 0.966-0.294 1.53-0.461 1.69-0.16 0.155-0.605 0.179-1.337 0.073v0l-2.187 0.412z" fill="#27272a" data-fill-palette-color="accent"/>
                        <path d="M156.527 12.045l-3.846 9.779c-1.073-0.422-1.671-0.727-1.794-0.914-0.13-0.189-0.053-0.644 0.23-1.363v0l2.28-5.88 0.369-0.937c0.144-0.366 0.256-0.642 0.337-0.829 0.09-0.191 0.173-0.413 0.251-0.667 0.084-0.251 0.128-0.445 0.131-0.582 0.009-0.135 0.007-0.278-0.006-0.429v0c-0.024-0.272-0.219-0.48-0.586-0.624v0l-2.375-0.213-0.067 0.782-3.806 9.674c-1.066-0.42-1.664-0.724-1.794-0.913-0.13-0.189-0.053-0.644 0.23-1.363v0l4.495-11.425c0.877 0.345 1.426 0.59 1.645 0.734 0.222 0.139 0.312 0.338 0.268 0.598v0l2.063 0.035c0.7 0.276 1.21 0.545 1.529 0.809 0.325 0.266 0.564 0.623 0.716 1.069v0l2.545 0.006c0.94 0.37 1.547 0.689 1.82 0.957 0.276 0.262 0.471 0.47 0.586 0.624 0.112 0.161 0.168 0.416 0.168 0.766 0.001 0.35-0.018 0.656-0.055 0.918-0.038 0.262-0.15 0.677-0.336 1.245v0c-0.284 0.85-0.721 2.026-1.312 3.528v0l-2.506 6.371c-1.085-0.427-1.693-0.735-1.823-0.925-0.123-0.187-0.043-0.64 0.24-1.359v0l1.951-4.96c0.866-2.202 1.324-3.44 1.373-3.712v0c0.102-0.499-0.012-0.868-0.34-1.107v0c-0.114-0.081-0.262-0.169-0.444-0.262v0l-2.094-0.179z" fill="#27272a" data-fill-palette-color="accent"/>
                        <path d="M190.644 37.733l-4.773 4.663c-0.563 0.55-0.947 0.811-1.152 0.786-0.206-0.026-0.626-0.364-1.262-1.015v0l-0.377-0.385 13.256-12.953 0.376 0.385c0.635 0.65 0.963 1.078 0.985 1.285 0.022 0.206-0.249 0.585-0.811 1.134v0l-3.718 3.633-0.536 0.382 2.971 3.041 0.409-0.513 4.838-4.728 0.398 0.408c0.635 0.65 0.963 1.078 0.985 1.284 0.022 0.206-0.249 0.585-0.811 1.135v0l-12.135 11.858-0.363-0.371c-0.659-0.674-0.999-1.114-1.02-1.321-0.022-0.206 0.249-0.585 0.811-1.134v0l4.809-4.7 0.528-0.231-3.128-3.201z" fill="#27272a" data-fill-palette-color="accent"/>
                        <path d="M201.486 61.977l1.888 1.381 0.531-0.617 8.689-5.23c0.591 0.982 0.884 1.593 0.878 1.834-0.009 0.235-0.345 0.552-1.007 0.951v0l-10.519 6.331c-0.525-0.872-0.827-1.433-0.908-1.686-0.081-0.252 0.021-0.472 0.305-0.658v0l-1.6-0.961c-0.699-1.162-0.956-2.239-0.768-3.229v0c0.106-0.626 0.935-1.445 2.486-2.458v0c0.471-0.323 1.249-0.811 2.335-1.465v0l5.866-3.531c0.591 0.982 0.88 1.587 0.867 1.817-0.012 0.229-0.35 0.543-1.012 0.942v0l-4.497 2.706c-1.72 1.035-2.695 1.677-2.924 1.927-0.23 0.249-0.423 0.48-0.58 0.693v0c-0.267 0.359-0.277 0.776-0.03 1.253z" fill="#27272a" data-fill-palette-color="accent"/>
                        <path d="M207.66 79.796v0l17.74-5.871c0.356 1.075 0.502 1.723 0.439 1.943-0.063 0.221-0.467 0.455-1.214 0.702v0l-3.447 1.141 0.962 1.257c0.345 1.043 0.469 1.773 0.372 2.191-0.095 0.424-0.186 0.754-0.273 0.99-0.086 0.236-0.28 0.471-0.58 0.707-0.301 0.235-0.569 0.428-0.806 0.577-0.243 0.152-0.626 0.332-1.149 0.541v0c-0.781 0.316-1.787 0.677-3.017 1.084-1.236 0.409-2.122 0.688-2.658 0.837-0.536 0.149-1.162 0.277-1.876 0.385-0.712 0.114-1.234 0.08-1.567-0.103v0c-0.837-0.501-1.469-1.396-1.895-2.683v0l0.512-1.82c-0.399 0.111-0.673 0.069-0.823-0.124-0.156-0.191-0.396-0.776-0.72-1.754zM210.834 83.009c0.234 0.644 0.677 0.933 1.327 0.868 0.646-0.057 1.86-0.38 3.643-0.97 1.783-0.59 2.995-1.073 3.635-1.449 0.633-0.374 0.874-0.878 0.721-1.513v0l-1.103-1.778-0.612 0.449-6.557 2.17-0.827 0.027z" fill="#27272a" data-fill-palette-color="accent"/>
                        <path d="M16.035 143.979l1.536 5.04-2.209 0.673-1.527-5.011-0.515 0.37-7.94 2.419-0.189-0.623c-0.271-0.889-0.369-1.433-0.296-1.632 0.076-0.193 0.496-0.406 1.262-0.64v0l16.357-4.984 2.3 7.551-2.111 0.643-1.628-5.342-0.554 0.414-3.795 1.156z" fill="#27272a" data-fill-palette-color="accent"/>
                        <path d="M27.953 161.964c-0.196-0.365-0.227-0.76-0.093-1.185 0.139-0.429 0.394-0.743 0.765-0.941 0.376-0.202 0.767-0.234 1.171-0.098 0.404 0.137 0.704 0.388 0.9 0.753 0.199 0.37 0.243 0.762 0.134 1.175-0.113 0.407-0.357 0.711-0.734 0.913-0.37 0.199-0.771 0.241-1.202 0.125-0.428-0.124-0.742-0.372-0.941-0.742zM15.251 167.485v0l10.999-5.9c0.548 1.022 0.81 1.647 0.786 1.875-0.024 0.228-0.379 0.527-1.066 0.896v0l-10.999 5.899c-0.548-1.022-0.81-1.647-0.786-1.875 0.024-0.228 0.379-0.527 1.066-0.895z" fill="#27272a" data-fill-palette-color="accent"/>
                        <path d="M34.565 180.051l-8.107 6.604c-0.732-0.899-1.111-1.465-1.135-1.699-0.029-0.239 0.259-0.605 0.864-1.098v0l9.597-7.818c0.724 0.889 1.119 1.428 1.187 1.617 0.067 0.19-0.054 0.411-0.364 0.665v0l1.812 0.662c0.317 0.389 0.567 0.776 0.749 1.161v0l0.24 0.342c-0.762 0.621-1.257 0.937-1.485 0.948-0.232 0.005-0.581-0.279-1.048-0.852v0l-1.909-1.2z" fill="#27272a" data-fill-palette-color="accent"/>
                        <path d="M44.64 201.6v0c0.911 0.74 1.892 1.424 2.946 2.052v0l-1.276 1.571c-1.436-0.782-2.416-1.387-2.943-1.814-0.521-0.423-0.91-0.8-1.166-1.13-0.256-0.33-0.459-0.639-0.609-0.928-0.145-0.284-0.193-0.607-0.144-0.968 0.049-0.362 0.12-0.68 0.212-0.955 0.083-0.274 0.281-0.641 0.595-1.103v0c0.412-0.626 0.884-1.265 1.414-1.918 0.526-0.647 0.969-1.192 1.328-1.634v0l0.853-1.05c0.774-0.953 1.286-1.524 1.536-1.714 0.245-0.194 0.513-0.4 0.804-0.618 0.286-0.222 0.531-0.347 0.735-0.373 0.199-0.03 0.437-0.06 0.714-0.088 0.282-0.024 0.544 0.018 0.787 0.128v0c0.743 0.376 1.362 0.765 1.856 1.167 0.5 0.406 0.864 0.829 1.093 1.268 0.23 0.449 0.35 0.865 0.361 1.25 0.011 0.385-0.102 0.83-0.339 1.337v0c-0.356 0.803-0.963 1.734-1.823 2.792v0l-1.06 1.418-4.467-3.471-0.22 0.594c-1.082 1.332-1.707 2.235-1.875 2.71-0.173 0.471 0.056 0.963 0.688 1.477zM50.353 196.713c0.583-0.75 0.924-1.315 1.025-1.697 0.091-0.381-0.103-0.765-0.582-1.154-0.484-0.393-0.896-0.527-1.235-0.4-0.339 0.127-0.835 0.593-1.489 1.398v0l-0.518 0.313 2.637 2.143z" fill="#27272a" data-fill-palette-color="accent"/>
                        <path d="M60.276 214.018l0.916-1.805c1.305 0.86 2.181 1.404 2.629 1.631 0.447 0.227 0.761 0.337 0.939 0.329 0.179-0.008 0.326-0.036 0.442-0.084 0.109-0.051 0.238-0.184 0.385-0.398v0c0.211-0.296 0.442-0.692 0.694-1.187v0c0.187-0.369-0.147-1.432-1.004-3.191v0c-0.324-0.651-0.56-1.376-0.71-2.174-0.147-0.805-0.091-1.461 0.167-1.969 0.258-0.508 0.459-0.881 0.602-1.12 0.138-0.242 0.359-0.513 0.665-0.815 0.299-0.304 0.597-0.488 0.895-0.549v0c0.832-0.14 1.819 0.079 2.962 0.659v0l2.422 1.926c-0.575 0.834-0.946 1.272-1.114 1.317-0.164 0.038-0.367-0.004-0.608-0.127-0.242-0.123-0.512-0.287-0.812-0.491v0l-0.824-0.624c-0.629-0.319-1.083-0.375-1.364-0.168v0c-0.219 0.162-0.418 0.419-0.596 0.77-0.181 0.357-0.149 0.848 0.096 1.474 0.242 0.632 0.541 1.271 0.898 1.917 0.363 0.648 0.629 1.361 0.797 2.138 0.171 0.771 0.119 1.429-0.158 1.973-0.273 0.538-0.489 0.942-0.649 1.211-0.153 0.272-0.401 0.603-0.743 0.992-0.342 0.389-0.68 0.643-1.015 0.762-0.334 0.119-0.765 0.159-1.292 0.12-0.53-0.049-1.031-0.193-1.503-0.433-0.472-0.239-0.863-0.465-1.174-0.676-0.314-0.205-0.669-0.458-1.065-0.757-0.405-0.297-0.697-0.514-0.878-0.651z" fill="#27272a" data-fill-palette-color="accent"/>
                        <path d="M88.334 210.491l2.503 0.682c-0.258 0.949-0.507 1.514-0.746 1.694-0.231 0.176-0.775 0.147-1.632-0.086v0l-0.716-0.195 0.044 0.687-1.349 4.957c-0.387 1.42-0.596 2.407-0.627 2.96-0.033 0.56 0.115 0.92 0.443 1.08v0l1.904 0.519-0.531 1.953-2.067-0.426c-0.831-0.226-1.357-0.461-1.579-0.704-0.224-0.237-0.387-0.425-0.489-0.566-0.111-0.136-0.173-0.37-0.188-0.704-0.014-0.334-0.021-0.607-0.02-0.817-0.001-0.204 0.059-0.564 0.178-1.08 0.113-0.517 0.215-0.943 0.306-1.277v0l1.772-6.507 0.367-0.574-1.325-0.361 0.572-2.101 1.325 0.361 0.055-0.976 0.35-1.285c1.119 0.305 1.758 0.538 1.918 0.701 0.159 0.163 0.147 0.585-0.039 1.265v0z" fill="#27272a" data-fill-palette-color="accent"/>
                        <path d="M104.067 220.408v0c0 0 0.035-0.535 0.105-1.604v0c0.07-1.069 0.141-1.785 0.213-2.147 0.078-0.355 0.162-0.71 0.253-1.064 0.098-0.347 0.199-0.599 0.304-0.755 0.105-0.156 0.236-0.341 0.394-0.555 0.164-0.22 0.343-0.365 0.538-0.434 0.195-0.076 0.425-0.156 0.688-0.24v0c0.445-0.147 1.083-0.194 1.916-0.139 0.826 0.054 1.486 0.196 1.98 0.426 0.501 0.237 0.885 0.49 1.153 0.758 0.268 0.269 0.439 0.766 0.514 1.492 0.075 0.719 0.105 1.356 0.088 1.912-0.009 0.557-0.045 1.309-0.107 2.256v0l-0.127 1.938c-0.073 1.11-0.145 1.842-0.216 2.198-0.078 0.362-0.163 0.72-0.254 1.074-0.098 0.361-0.2 0.619-0.306 0.775-0.106 0.163-0.237 0.355-0.394 0.576-0.164 0.22-0.347 0.371-0.55 0.453-0.209 0.081-0.446 0.168-0.71 0.259v0c-0.425 0.162-0.983 0.221-1.673 0.176-0.69-0.045-1.22-0.107-1.589-0.186-0.369-0.072-0.69-0.205-0.962-0.399-0.273-0.188-0.499-0.366-0.679-0.534-0.179-0.168-0.321-0.442-0.425-0.823-0.111-0.381-0.192-0.702-0.242-0.964-0.05-0.268-0.067-0.694-0.049-1.278v0c0.018-0.991 0.063-2.048 0.137-3.171zM108.384 215.676v0c-0.778-0.051-1.276 0.232-1.493 0.85-0.21 0.618-0.367 1.702-0.469 3.252-0.101 1.543-0.16 2.541-0.176 2.995-0.01 0.461 0.019 0.949 0.087 1.464 0.074 0.521 0.222 0.861 0.443 1.017 0.22 0.164 0.54 0.26 0.96 0.288v0c0.778 0.051 1.273-0.246 1.486-0.892 0.219-0.645 0.38-1.745 0.482-3.301 0.102-1.55 0.157-2.552 0.166-3.007 0.009-0.448-0.021-0.915-0.091-1.402-0.07-0.494-0.218-0.82-0.446-0.977-0.22-0.164-0.537-0.26-0.949-0.287z" fill="#27272a" data-fill-palette-color="accent"/>
                        <path d="M129.558 216.117l1.498 10.348c-1.148 0.166-1.828 0.2-2.041 0.101-0.22-0.098-0.386-0.533-0.497-1.306v0l-1.774-12.251c1.134-0.164 1.8-0.226 1.997-0.187 0.198 0.04 0.325 0.258 0.383 0.654v0l1.499-1.214c0.497-0.072 0.957-0.087 1.381-0.046v0l0.417-0.029c0.141 0.973 0.157 1.56 0.05 1.76-0.115 0.202-0.538 0.355-1.269 0.462v0l-2.011 1.021z" fill="#27272a" data-fill-palette-color="accent"/>
                        <path d="M153.853 208.958l3.872 9.855c-1.079 0.424-1.731 0.611-1.955 0.561-0.224-0.05-0.478-0.439-0.763-1.165v0l-2.344-5.91-0.372-0.946c-0.144-0.366-0.251-0.648-0.321-0.847-0.071-0.198-0.16-0.418-0.27-0.659-0.118-0.245-0.22-0.42-0.305-0.525-0.091-0.103-0.193-0.205-0.306-0.306v0c-0.203-0.183-0.487-0.202-0.853-0.058v0l-1.913 1.473 0.492 0.615 3.835 9.761c-1.079 0.424-1.731 0.611-1.955 0.56-0.224-0.05-0.478-0.439-0.763-1.164v0l-4.526-11.522c0.89-0.35 1.465-0.546 1.724-0.59 0.257-0.05 0.458 0.035 0.603 0.255v0l1.544-1.383c0.707-0.278 1.27-0.43 1.69-0.456 0.419-0.026 0.841 0.074 1.265 0.301v0l1.874-1.742c0.953-0.374 1.621-0.557 2.003-0.546 0.387 0.001 0.675 0.022 0.867 0.063 0.189 0.035 0.404 0.184 0.645 0.446 0.239 0.256 0.434 0.493 0.585 0.71 0.153 0.224 0.356 0.61 0.609 1.16v0c0.378 0.813 0.864 1.977 1.459 3.492v0l2.525 6.429c-1.098 0.431-1.759 0.622-1.983 0.571-0.224-0.05-0.478-0.439-0.763-1.164v0l-1.964-4.999c-0.873-2.222-1.382-3.453-1.528-3.695v0c-0.266-0.435-0.603-0.626-1.013-0.575v0c-0.141 0.012-0.312 0.05-0.512 0.114v0l-1.665 1.299z" fill="#27272a" data-fill-palette-color="accent"/>
                        <path d="M188.69 188.167l4.799 4.695c0.572 0.56 0.847 0.943 0.825 1.149-0.022 0.206-0.353 0.637-0.993 1.291v0l-0.384 0.393-13.356-13.068 0.384-0.393c0.64-0.654 1.063-0.995 1.27-1.021 0.206-0.026 0.595 0.24 1.166 0.8v0l3.745 3.664 0.394 0.528 2.995-3.061-0.522-0.397-4.879-4.774 0.406-0.414c0.64-0.654 1.063-0.995 1.269-1.021 0.206-0.026 0.595 0.24 1.167 0.8v0l12.221 11.959-0.362 0.37c-0.664 0.679-1.099 1.031-1.305 1.058-0.211 0.031-0.602-0.233-1.174-0.793v0l-4.842-4.738-0.236-0.53-3.159 3.228z" fill="#27272a" data-fill-palette-color="accent"/>
                        <path d="M209.901 170.854l0.348-2.331-0.807-0.178-8.756-5.276c0.599-0.993 1.005-1.544 1.221-1.652 0.212-0.102 0.652 0.048 1.319 0.451v0l10.603 6.39c-0.525 0.871-0.882 1.404-1.07 1.599-0.185 0.189-0.431 0.203-0.738 0.042v0l-0.098 1.877c-0.704 1.167-1.543 1.904-2.52 2.211v0c-0.603 0.199-1.72-0.154-3.353-1.059v0c-0.511-0.268-1.313-0.732-2.404-1.39v0l-5.916-3.565c0.599-0.993 1.002-1.538 1.21-1.633 0.208-0.096 0.647 0.057 1.315 0.459v0l4.53 2.73c1.737 1.047 2.769 1.613 3.097 1.7 0.334 0.09 0.631 0.155 0.893 0.194v0c0.445 0.063 0.821-0.127 1.126-0.569z" fill="#27272a" data-fill-palette-color="accent"/>
                        <path d="M220.811 152.346v0l-17.882-5.927c0.361-1.088 0.632-1.702 0.814-1.842 0.182-0.14 0.65-0.085 1.403 0.165v0l3.476 1.153-0.019-1.593c0.348-1.049 0.687-1.716 1.017-1.999 0.33-0.284 0.6-0.494 0.809-0.632 0.212-0.144 0.512-0.22 0.901-0.226 0.382-0.009 0.715-0.002 1 0.021 0.285 0.023 0.704 0.108 1.255 0.255v0c0.822 0.215 1.854 0.529 3.096 0.94 1.242 0.412 2.126 0.719 2.652 0.922 0.519 0.201 1.101 0.472 1.745 0.815 0.646 0.336 1.048 0.676 1.204 1.021v0c0.377 0.911 0.35 2.016-0.081 3.316v0l-1.51 1.16c0.386 0.149 0.585 0.347 0.596 0.595 0.009 0.253-0.15 0.872-0.476 1.856zM220.173 147.838c0.198-0.663 0.018-1.166-0.54-1.508-0.56-0.336-1.742-0.802-3.543-1.4-1.796-0.595-3.063-0.933-3.801-1.013-0.738-0.08-1.236 0.183-1.494 0.79v0l-0.18 2.095 0.768 0.008 6.605 2.189 0.689 0.475z" fill="#27272a" data-fill-palette-color="accent"/>
                        <path d="M0.171 113.854c0-3.942 3.196-7.138 7.138-7.138 3.942 0 7.138 3.196 7.138 7.138 0 3.942-3.196 7.138-7.138 7.138-3.942 0-7.138-3.196-7.138-7.138z" fill="#27272a" data-fill-palette-color="accent"/>
                        <path d="M213.331 113.854c0-3.942 3.196-7.138 7.138-7.138 3.942 0 7.138 3.196 7.138 7.138 0 3.942-3.196 7.138-7.138 7.138-3.942 0-7.138-3.196-7.138-7.138z" fill="#27272a" data-fill-palette-color="accent"/>
                      </g>
                      <g id="text-1"/>
                    </svg>
                  </g>
                </svg>
              </g>
            </svg>
          </g>
        </svg>
        <rect width="395.52" height="136.407124015385" fill="none" stroke="none" visibility="hidden"/>
      </g>
    </svg>
  </g>
</svg>