<svg xmlns="http://www.w3.org/2000/svg" version="1.1"
  xmlns:xlink="http://www.w3.org/1999/xlink"
  xmlns:svgjs="http://svgjs.dev/svgjs" width="2000" height="833" viewBox="0 0 2000 833">
  <g transform="matrix(1,0,0,1,-1.2121212121212466,-0.43987020478573413)">
    <svg viewBox="0 0 396 165" data-background-color="#27272a" preserveAspectRatio="xMidYMid meet" height="833" width="2000"
      xmlns="http://www.w3.org/2000/svg"
      xmlns:xlink="http://www.w3.org/1999/xlink">
      <g id="tight-bounds" transform="matrix(1,0,0,1,0.2400000000000091,0.08712915220846185)">
        <svg viewBox="0 0 395.52 164.82574169558308" height="164.82574169558308" width="395.52">
          <g>
            <svg viewBox="0 0 395.52 164.82574169558308" height="164.82574169558308" width="395.52">
              <g transform="matrix(1,0,0,1,0,101.86892084867753)">
                <svg viewBox="0 0 395.52 62.956820846905536" height="62.956820846905536" width="395.52">
                  <g id="textblocktransform">
                    <svg viewBox="0 0 395.52 62.956820846905536" height="62.956820846905536" width="395.52" id="textblock">
                      <g>
                        <svg viewBox="0 0 395.52 62.956820846905536" height="62.956820846905536" width="395.52">
                          <g transform="matrix(1,0,0,1,0,0)">
                            <svg width="395.52" viewBox="3 -36.3 230.22 36.65" height="62.956820846905536" data-palette-color="#e4e4e7">
                              <path d="M7.45-21.6L17.6-21.6 17.6-17.15 7.5-17.15 7.9-16 7.9 0 6.65 0Q3.95 0 3.48-0.38 3-0.75 3-3.05L3-3.05 3-36 18.2-36 18.2-31.75 7.45-31.75 7.9-30.5 7.9-22.85 7.45-21.6ZM25.45-29.4Q24.25-29.4 23.35-30.33 22.45-31.25 22.45-32.48 22.45-33.7 23.35-34.55 24.25-35.4 25.45-35.4 26.65-35.4 27.55-34.55 28.45-33.7 28.45-32.48 28.45-31.25 27.55-30.33 26.65-29.4 25.45-29.4ZM23.25-2.8L23.25-2.8 23.25-26.85Q26.6-26.85 27.15-26.48 27.7-26.1 27.7-23.85L27.7-23.85 27.7 0.2Q24.35 0.2 23.8-0.18 23.25-0.55 23.25-2.8ZM38.45-20.15L38.45 0Q35.09 0 34.52-0.38 33.95-0.75 33.95-3L33.95-3 33.95-26.85Q37.25-26.85 37.8-26.65 38.34-26.45 38.34-25.3L38.34-25.3 41.55-27.2Q43-27.2 44.2-26.9L44.2-26.9 45-26.85Q45-24 44.59-23.48 44.2-22.95 42.05-22.95L42.05-22.95 37.95-21.55 38.45-20.15ZM56.04-3.9L56.04-3.9Q59.44-3.9 62.94-4.4L62.94-4.4 62.94-0.5Q58.29 0.35 56.34 0.35 54.39 0.35 53.22 0.08 52.04-0.2 51.19-0.58 50.34-0.95 49.79-1.85 49.24-2.75 48.94-3.53 48.64-4.3 48.49-5.9L48.49-5.9Q48.29-8.05 48.29-10.48 48.29-12.9 48.29-14.55L48.29-14.55 48.29-17.15Q48.29-20.7 48.49-21.58 48.69-22.45 48.94-23.48 49.19-24.5 49.59-24.93 49.99-25.35 50.57-25.93 51.14-26.5 51.89-26.7L51.89-26.7Q54.24-27.2 56.09-27.2 57.94-27.2 59.27-26.63 60.59-26.05 61.32-25.2 62.04-24.35 62.44-22.8L62.44-22.8Q63.09-20.35 63.09-16.4L63.09-16.4 63.24-13 52.34-12.75 52.74-11.6Q52.74-6.65 53.22-5.28 53.69-3.9 56.04-3.9ZM58.64-18.15Q58.59-20.9 58.12-21.93 57.64-22.95 55.84-22.95 54.04-22.95 53.52-22.05 52.99-21.15 52.99-18.15L52.99-18.15 52.59-17.05 59.14-17.05 58.64-18.15ZM66.74-0.5L66.74-4.4Q71.24-3.9 72.69-3.9 74.14-3.9 74.59-4.15 75.04-4.4 75.27-4.67 75.49-4.95 75.59-5.7L75.59-5.7Q75.74-6.75 75.74-8.35L75.74-8.35Q75.74-9.55 71.24-12.95L71.24-12.95Q69.54-14.2 68.12-16.07 66.69-17.95 66.69-19.6 66.69-21.25 66.74-22.05 66.79-22.85 67.17-24.03 67.54-25.2 68.24-25.75L68.24-25.75Q70.19-27.2 73.89-27.2L73.89-27.2 79.74-26Q79.34-23.1 78.97-22.78 78.59-22.45 77.82-22.45 77.04-22.45 75.99-22.6L75.99-22.6 74.04-22.95Q71.99-22.95 71.54-22.05L71.54-22.05Q71.19-21.35 71.19-20.2 71.19-19.05 72.64-17.75 74.09-16.45 75.87-15.25 77.64-14.05 79.09-12.28 80.54-10.5 80.54-8.75 80.54-7 80.49-6.1 80.44-5.2 80.07-3.75 79.69-2.3 78.99-1.55 78.29-0.8 76.87-0.23 75.44 0.35 73.92 0.35 72.39 0.35 71.32 0.23 70.24 0.1 68.82-0.15 67.39-0.4 66.74-0.5L66.74-0.5ZM89.64-26.85L94.64-26.85Q94.64-24 94.11-23.33 93.59-22.65 91.04-22.65L91.04-22.65 89.59-22.65 90.04-21.4 90.04-11.5Q90.04-7.25 90.36-5.68 90.69-4.1 91.74-3.9L91.74-3.9 95.54-3.9 95.54 0 91.49 0.25Q88.99 0.25 88.19-0.25 87.39-0.75 86.99-1.05 86.59-1.35 86.29-2.27 85.99-3.2 85.84-3.78 85.69-4.35 85.61-5.88 85.54-7.4 85.54-8.4L85.54-8.4 85.54-21.4 85.94-22.65 83.29-22.65 83.29-26.85 85.94-26.85 85.54-28.7 85.54-31.25Q88.89-31.25 89.46-30.93 90.04-30.6 90.04-28.55L90.04-28.55 89.64-26.85ZM98.79-13.3L98.79-13.3Q98.79-13.3 98.79-16.4L98.79-16.4Q98.79-19.5 98.94-20.55 99.09-21.6 99.29-22.63 99.49-23.65 99.76-24.13 100.04-24.6 100.46-25.25 100.89-25.9 101.44-26.15 101.99-26.4 102.74-26.7L102.74-26.7Q103.99-27.2 106.39-27.2 108.79-27.2 110.26-26.63 111.74-26.05 112.56-25.33 113.39-24.6 113.74-22.53 114.09-20.45 114.16-18.85 114.24-17.25 114.24-14.5L114.24-14.5 114.24-10.75Q114.24-7.55 114.09-6.5 113.94-5.45 113.74-4.4 113.54-3.35 113.26-2.88 112.99-2.4 112.56-1.73 112.14-1.05 111.56-0.78 110.99-0.5 110.24-0.2L110.24-0.2Q109.04 0.35 107.04 0.35 105.04 0.35 103.96 0.2 102.89 0.05 102.06-0.45 101.24-0.95 100.69-1.4 100.14-1.85 99.76-2.93 99.39-4 99.19-4.75 98.99-5.5 98.94-7.2L98.94-7.2Q98.79-10.05 98.79-13.3ZM106.49-22.95L106.49-22.95Q104.24-22.95 103.74-21.13 103.24-19.3 103.24-14.83 103.24-10.35 103.29-9.03 103.34-7.7 103.64-6.23 103.94-4.75 104.61-4.33 105.29-3.9 106.49-3.9L106.49-3.9Q108.74-3.9 109.24-5.8 109.74-7.7 109.74-12.2 109.74-16.7 109.69-18 109.64-19.3 109.34-20.7 109.04-22.1 108.36-22.53 107.69-22.95 106.49-22.95ZM123.73-20.15L123.73 0Q120.38 0 119.81-0.38 119.23-0.75 119.23-3L119.23-3 119.23-26.85Q122.53-26.85 123.08-26.65 123.63-26.45 123.63-25.3L123.63-25.3 126.83-27.2Q128.28-27.2 129.48-26.9L129.48-26.9 130.28-26.85Q130.28-24 129.88-23.48 129.48-22.95 127.33-22.95L127.33-22.95 123.23-21.55 123.73-20.15ZM148.98-20.4L148.98 0Q145.63 0 145.08-0.38 144.53-0.75 144.53-3L144.53-3 144.48-15.25 144.48-17.2Q144.48-18.35 144.51-18.95 144.53-19.55 144.48-20.33 144.43-21.1 144.31-21.48 144.18-21.85 143.98-22.25L143.98-22.25Q143.63-22.95 142.48-22.95L142.48-22.95 138.03-21.65 138.48-20.2 138.48 0Q135.13 0 134.58-0.38 134.03-0.75 134.03-3L134.03-3 134.03-26.85Q136.78-26.85 137.53-26.7 138.28-26.55 138.43-25.8L138.43-25.8 142.18-27.2Q144.38-27.2 145.53-26.83 146.68-26.45 147.58-25.4L147.58-25.4 152.18-27.2Q155.13-27.2 156.16-26.78 157.18-26.35 157.66-26.05 158.13-25.75 158.51-24.8 158.88-23.85 159.06-23.1 159.23-22.35 159.33-20.6L159.33-20.6Q159.48-18 159.48-13.3L159.48-13.3 159.48 0Q156.08 0 155.53-0.38 154.98-0.75 154.98-3L154.98-3 154.98-13.35Q154.98-20.25 154.83-21.05L154.83-21.05Q154.58-22.5 153.43-22.8L153.43-22.8Q153.03-22.9 152.43-22.95L152.43-22.95 148.53-21.8 148.98-20.4ZM179.13-16L179.13-3.05Q179.13-0.75 178.65-0.38 178.18 0 175.53 0L175.53 0 174.48 0 174.48-36 175.53-36Q178.18-36 178.65-35.63 179.13-35.25 179.13-32.95L179.13-32.95 179.13-22.85 178.93-21.6 187.18-21.6 187.03-22.85 187.03-36 188.13-36Q190.78-36 191.25-35.63 191.73-35.25 191.73-32.95L191.73-32.95 191.73 0 190.73 0Q187.98 0 187.5-0.38 187.03-0.75 187.03-3.05L187.03-3.05 187.03-16.1 187.43-17.15 178.73-17.15 179.13-16ZM204.57-3.9L208.77-5.65 208.27-7.15 208.27-26.85Q211.62-26.85 212.2-26.48 212.77-26.1 212.77-23.85L212.77-23.85 212.77 0Q209.82 0 209.07-0.18 208.32-0.35 208.27-1.35L208.27-1.35 205.07 0.35Q201.12 0.35 198.92-1.6L198.92-1.6Q197.52-2.8 197.32-8.2L197.32-8.2Q197.22-9.85 197.22-13.55L197.22-13.55 197.22-26.85Q200.57-26.85 201.12-26.48 201.67-26.1 201.67-23.85L201.67-23.85 201.67-13.65Q201.67-7.8 201.95-6.85 202.22-5.9 202.52-5.2L202.52-5.2Q203.02-4 204.57-3.9L204.57-3.9ZM218.02 0L218.02 0 218.02-36.3Q221.32-36.3 221.87-35.93 222.42-35.55 222.42-33.25L222.42-33.25 222.42-26.2 225.32-27.2Q228.52-27.2 229.6-26.55 230.67-25.9 231.25-25.45 231.82-25 232.2-23.95 232.57-22.9 232.77-22.1 232.97-21.3 233.07-19.65L233.07-19.65Q233.22-17.2 233.22-13.43 233.22-9.65 233.15-8.03 233.07-6.4 232.72-4.33 232.37-2.25 231.57-1.5L231.57-1.5Q229.42 0.35 225.47 0.35L225.47 0.35 222.42-1.7Q222.37-0.5 221.7-0.25 221.02 0 218.02 0ZM225.87-3.9Q227.87-3.95 228.3-5.8 228.72-7.65 228.72-13.13 228.72-18.6 228.27-20.7 227.82-22.8 225.92-22.95L225.92-22.95 221.97-22 222.42-20.6 222.42-7.2 221.97-5.65 225.87-3.9Z" opacity="1" transform="matrix(1,0,0,1,0,0)" fill="#e4e4e7" class="wordmark-text-0" data-fill-palette-color="primary" id="text-0"></path>
                            </svg>
                          </g>
                        </svg>
                      </g>
                    </svg>
                  </g>
                </svg>
              </g>
              <g transform="matrix(1,0,0,1,164.04504900696023,0)">
                <svg viewBox="0 0 67.42990198607951 87.00632641042345" height="87.00632641042345" width="67.42990198607951">
                  <g>
                    <svg xmlns="http://www.w3.org/2000/svg" data-name="Layer 1" viewBox="379.9999980584335 200 1239.9999819415677 1600" x="0" y="0" height="87.00632641042345" width="67.42990198607951" class="icon-icon-0" data-fill-palette-color="accent" id="icon-0">
                      <path d="M950.716 200c-91.001 362.781-261.027 349.741-486.733 727.179C279.359 1235.919 392.65 1734.28 868.369 1800a186.491 186.491 0 0 1-30.141-12.275C664.586 1696.755 540.166 1475.877 619.152 1270.186c14.071-36.644 55.943-129.201 165.079-181.924-80.448 145.714-75.52 248.293-8.584 373.522-60.886-136.906-4.06-250.293 37.416-319.067 66.566-110.376 151.276-225.686 34.333-514.433 38.316 30.545 323.8 239.097 165.275 570.967-73.274 153.398-145.983 332.327 0.922 542.082-71.26-185.734-40.197-306.996 54.06-452.893 138.575-214.494 80.62-404.512 65.876-462.636 100.173 123.186 152.664 296.074 115 457.669 22.928-48.043 49.984-80.851 71.206-96.717 101.764 172.971 93.666 446.052-93.36 571.132 238.39-100.479 393.625-343.439 393.625-627.21C1620 759.697 1294.804 516.219 950.716 200ZM517.428 1302.442c0-0.092 0.001-0.184 0.002-0.277 0 0.971 0.008 1.939 0.012 2.909C517.439 1304.196 517.428 1303.32 517.428 1302.442Z" fill="#e4e4e7" data-fill-palette-color="accent"></path>
                    </svg>
                  </g>
                </svg>
              </g>
              <g></g>
            </svg>
          </g>
          <defs></defs>
        </svg>
        <rect width="395.52" height="164.82574169558308" fill="none" stroke="none" visibility="hidden"></rect>
      </g>
    </svg>
  </g>
</svg>