<svg xmlns="http://www.w3.org/2000/svg" version="1.1" xmlns:xlink="http://www.w3.org/1999/xlink" xmlns:svgjs="http://svgjs.dev/svgjs" width="2000" height="621" viewBox="0 0 2000 621"><g transform="matrix(1,0,0,1,-1.2121212121212466,-1.0723987026966597)"><svg viewBox="0 0 396 123" data-background-color="#e4e4e7" preserveAspectRatio="xMidYMid meet" height="621" width="2000" xmlns="http://www.w3.org/2000/svg" xmlns:xlink="http://www.w3.org/1999/xlink"><g id="tight-bounds" transform="matrix(1,0,0,1,0.2400000000000091,0.21240747251479775)"><svg viewBox="0 0 395.52 122.57518505497042" height="122.57518505497042" width="395.52"><g><svg viewBox="0 0 618.4475630666913 191.66243044522446" height="122.57518505497042" width="395.52"><g transform="matrix(1,0,0,1,222.9275630666913,69.34386994273046)"><svg viewBox="0 0 395.52 52.97469055976354" height="52.97469055976354" width="395.52"><g id="textblocktransform"><svg viewBox="0 0 395.52 52.97469055976354" height="52.97469055976354" width="395.52" id="textblock"><g><svg viewBox="0 0 395.52 52.97469055976354" height="52.97469055976354" width="395.52"><g transform="matrix(1,0,0,1,0,0)"><svg width="395.52" viewBox="3.9 -35.5 270.62 36.25" height="52.97469055976354" data-palette-color="#27272a"><path d="M3.9 0L3.9-35 20.6-35 20.6-29.5 9.4-29.5 9.4-20.65 16.4-20.65 14.6-15.4 9.4-15.4 9.4 0 3.9 0ZM28.05-29.6Q26.85-29.6 25.95-30.5 25.05-31.4 25.05-32.6L25.05-32.6Q25.05-33.75 25.95-34.63 26.85-35.5 28.05-35.5L28.05-35.5Q29.2-35.5 30.07-34.63 30.95-33.75 30.95-32.6L30.95-32.6Q30.95-31.4 30.07-30.5 29.2-29.6 28.05-29.6L28.05-29.6ZM25.15 0L25.15-25.05 30.65-25.05 30.65 0 25.15 0ZM38 0L38-25.05 43.1-25.05 43.5-24.85Q45.55-25.55 47.35-25.55L47.35-25.55Q48.6-25.55 51-25.05L51-25.05 52-24.85 50.7-19.5Q49.3-20.2 47.95-20.2L47.95-20.2Q46.1-20.2 44.8-19.07 43.5-17.95 43.5-16.1L43.5-16.1 43.5 0 38 0ZM58.84-8.85L58.84-7.45Q58.84-6.05 59.62-5.28 60.39-4.5 61.89-4.5L61.89-4.5Q64.19-4.5 68.04-6.5L68.04-6.5 70.04-1.75Q68.24-0.6 65.94 0 63.64 0.6 61.34 0.6L61.34 0.6Q57.64 0.6 55.47-1.23 53.29-3.05 53.29-6.7L53.29-6.7 53.29-16.95Q53.29-21 55.82-23.25 58.34-25.5 62.49-25.5L62.49-25.5Q66.64-25.5 68.97-23.28 71.29-21.05 71.29-17.1L71.29-17.1 71.29-9.5 58.84-8.85ZM65.74-17Q65.74-18.5 64.79-19.3 63.84-20.1 62.44-20.1L62.44-20.1Q60.54-20.1 59.69-19.1 58.84-18.1 58.84-16.9L58.84-16.9 58.84-13.9 65.74-14.35 65.74-17ZM80.54-6.9Q80.54-6 81.47-5.2 82.39-4.4 84.29-4.4L84.29-4.4Q85.94-4.4 86.84-5.23 87.74-6.05 87.74-7.15L87.74-7.15Q87.74-8.7 86.62-9.45 85.49-10.2 82.99-11.1L82.99-11.1Q80.84-11.8 79.44-12.5 78.04-13.2 76.94-14.6 75.84-16 75.64-18.25L75.64-18.25Q75.49-19.95 76.32-21.68 77.14-23.4 79.12-24.53 81.09-25.65 84.19-25.65L84.19-25.65Q85.79-25.65 87.02-25.33 88.24-25 88.94-24.65 89.64-24.3 89.79-24.2L89.79-24.2 88.19-19.1Q88.09-19.2 87.67-19.48 87.24-19.75 86.34-20 85.44-20.25 84.19-20.25L84.19-20.25Q81.49-20.25 81.49-18.75L81.49-18.75Q81.49-18.45 81.59-18.15L81.59-18.15Q81.74-17.45 82.64-16.98 83.54-16.5 85.29-15.85L85.29-15.85Q87.74-14.95 89.42-14.08 91.09-13.2 92.32-11.48 93.54-9.75 93.54-7.05L93.54-7.05Q93.54-5 92.54-3.23 91.54-1.45 89.47-0.35 87.39 0.75 84.29 0.75L84.29 0.75Q81.44 0.75 79.37-0.23 77.29-1.2 76.22-2.8 75.14-4.4 75.04-6.35L75.04-6.35 80.54-6.9ZM104.59 0.65Q96.99 0.5 96.99-6.6L96.99-6.6 96.99-35 102.59-35 102.59-25.05 107.34-25.05 106.14-19.9 102.59-19.9 102.59-6.6Q102.59-4.9 103.54-4.33 104.49-3.75 106.24-3.75L106.24-3.75 104.59 0.65ZM131.04-9.2Q131.04-5 128.74-2.25 126.44 0.5 121.79 0.5L121.79 0.5Q117.14 0.5 114.76-2.27 112.39-5.05 112.39-9.2L112.39-9.2 112.39-15.8Q112.39-20.55 114.81-23.08 117.24-25.6 121.79-25.6L121.79-25.6Q126.14-25.6 128.59-22.98 131.04-20.35 131.04-15.8L131.04-15.8 131.04-9.2ZM125.59-15.8Q125.59-18.45 124.49-19.25 123.39-20.05 121.79-20.05L121.79-20.05Q117.89-20.05 117.89-15.8L117.89-15.8 117.89-8.7Q117.89-6.7 118.99-5.8 120.09-4.9 121.79-4.9L121.79-4.9Q123.44-4.9 124.51-5.85 125.59-6.8 125.59-8.7L125.59-8.7 125.59-15.8ZM136.03 0L136.03-25.05 141.13-25.05 141.53-24.85Q143.58-25.55 145.38-25.55L145.38-25.55Q146.63-25.55 149.03-25.05L149.03-25.05 150.03-24.85 148.73-19.5Q147.33-20.2 145.98-20.2L145.98-20.2Q144.13-20.2 142.83-19.07 141.53-17.95 141.53-16.1L141.53-16.1 141.53 0 136.03 0ZM179.08 0L179.08-15.2Q179.08-17.9 178.36-19.1 177.63-20.3 176.03-20.3L176.03-20.3Q174.88-20.3 172.93-19.6L172.93-19.6 172.08-19.25Q172.18-18.95 172.23-18.55 172.28-18.15 172.28-17.8L172.28-17.8 172.28 0 166.78 0 166.78-15.05Q166.78-17.55 165.63-18.9 164.48-20.25 162.53-20.25L162.53-20.25Q160.78-20.25 158.88-19.15L158.88-19.15 158.88 0 153.38 0 153.38-25.05 158.23-25.05 158.88-24.7Q160.53-25.45 162.63-25.45L162.63-25.45Q164.33-25.45 165.93-24.88 167.53-24.3 168.73-23.05L168.73-23.05Q169.43-23.45 170.83-24.15L170.83-24.15Q173.78-25.5 176.53-25.5L176.53-25.5Q180.08-25.5 182.33-23.33 184.58-21.15 184.58-17.3L184.58-17.3 184.58 0 179.08 0ZM220.38 0L220.38-15.4 209.83-15.4 209.83 0 204.33 0 204.33-35 209.83-35 209.83-20.65 220.38-20.65 220.38-35 225.83-35 225.83 0 220.38 0ZM245.12 0L244.77-0.3Q244.62-0.25 243.62 0.15 242.62 0.55 241.02 0.55L241.02 0.55Q231.62 0.55 231.62-8.6L231.62-8.6 231.62-25.05 237.12-25.05 237.12-9.4Q237.12-7.1 237.95-6 238.77-4.9 241.02-4.9L241.02-4.9Q243.27-4.9 244.02-6.13 244.77-7.35 244.77-9.6L244.77-9.6 244.77-25.05 250.27-25.05 250.27 0 245.12 0ZM274.52-7.85Q274.52-5.3 273.47-3.55 272.42-1.8 270.62-0.9L270.62-0.9Q269.02-0.1 267.4 0.25 265.77 0.6 263.92 0.6L263.92 0.6Q262.07 0.6 258.82 0.25L258.82 0.25 256.07 0 256.07-35 261.57-35 261.57-25Q263.77-25.5 265.57-25.5L265.57-25.5Q268.12-25.5 270.27-24.5L270.27-24.5Q274.52-22.55 274.52-17.3L274.52-17.3 274.52-7.85ZM269.07-15.75Q269.07-18 267.82-18.98 266.57-19.95 264.77-19.95L264.77-19.95Q263.77-19.95 262.87-19.7 261.97-19.45 261.57-19.1L261.57-19.1 261.57-4.8Q262.42-4.55 263.62-4.55L263.62-4.55Q265.72-4.55 267.4-5.33 269.07-6.1 269.07-7.75L269.07-7.75 269.07-15.75Z" opacity="1" transform="matrix(1,0,0,1,0,0)" fill="#27272a" class="wordmark-text-0" data-fill-palette-color="primary" id="text-0"></path></svg></g></svg></g></svg></g></svg></g><g><svg viewBox="0 0 191.66243044522446 191.66243044522446" height="191.66243044522446" width="191.66243044522446"><g><svg viewBox="0 0 191.66243044522446 191.66243044522446" height="191.66243044522446" width="191.66243044522446"><g transform="matrix(1,0,0,1,60.82038296363455,50.65594713377448)"><svg viewBox="0 0 70.02166451795536 90.3505361776755" height="90.3505361776755" width="70.02166451795536"><g><svg xmlns="http://www.w3.org/2000/svg" data-name="Layer 1" viewBox="379.9999980584335 200 1239.9999819415677 1600" x="0" y="0" height="90.3505361776755" width="70.02166451795536" class="icon-cg-0" data-fill-palette-color="accent" id="cg-0"><path d="M950.716 200c-91.001 362.781-261.027 349.741-486.733 727.179C279.359 1235.919 392.65 1734.28 868.369 1800a186.491 186.491 0 0 1-30.141-12.275C664.586 1696.755 540.166 1475.877 619.152 1270.186c14.071-36.644 55.943-129.201 165.079-181.924-80.448 145.714-75.52 248.293-8.584 373.522-60.886-136.906-4.06-250.293 37.416-319.067 66.566-110.376 151.276-225.686 34.333-514.433 38.316 30.545 323.8 239.097 165.275 570.967-73.274 153.398-145.983 332.327 0.922 542.082-71.26-185.734-40.197-306.996 54.06-452.893 138.575-214.494 80.62-404.512 65.876-462.636 100.173 123.186 152.664 296.074 115 457.669 22.928-48.043 49.984-80.851 71.206-96.717 101.764 172.971 93.666 446.052-93.36 571.132 238.39-100.479 393.625-343.439 393.625-627.21C1620 759.697 1294.804 516.219 950.716 200ZM517.428 1302.442c0-0.092 0.001-0.184 0.002-0.277 0 0.971 0.008 1.939 0.012 2.909C517.439 1304.196 517.428 1303.32 517.428 1302.442Z" fill="#27272a" data-fill-palette-color="accent"></path></svg></g></svg></g><g id="text-0"><path d="M14.911 72.667l-14.911-4.615 2.201-7.11 2.344 0.725-1.475 4.766 3.764 1.165 0.921-2.976 2.003 1.451-0.687 2.218 6.565 2.032z" fill="#27272a" data-fill-palette-color="accent"></path><path d="M10.282 49.113c-0.163 0.313-0.425 0.529-0.785 0.647-0.363 0.109-0.701 0.083-1.014-0.08v0c-0.307-0.16-0.514-0.417-0.621-0.771-0.103-0.36-0.074-0.696 0.09-1.01v0c0.16-0.307 0.414-0.515 0.761-0.625 0.348-0.11 0.675-0.085 0.983 0.076v0c0.313 0.163 0.53 0.422 0.652 0.775 0.116 0.351 0.094 0.68-0.066 0.988zM21.398 56.358l-9.907-5.158 1.133-2.177 9.907 5.158z" fill="#27272a" data-fill-palette-color="accent"></path><path d="M28.825 44.755l-8.754-6.937 1.411-1.78 0.177-0.093c0.216-0.6 0.49-1.11 0.823-1.53v0c0.232-0.293 0.628-0.672 1.188-1.138v0l0.342-0.3 1.515 1.941c-0.422 0.194-0.758 0.448-1.007 0.761v0c-0.346 0.436-0.506 0.907-0.481 1.411 0.026 0.514 0.254 0.942 0.685 1.283v0l5.625 4.459z" fill="#27272a" data-fill-palette-color="accent"></path><path d="M38.113 29.16l0.409 0.48c0.269 0.315 0.566 0.485 0.892 0.511 0.325 0.026 0.656-0.105 0.991-0.391v0c0.521-0.445 1.025-1.267 1.51-2.466v0l2.048 1.036c-0.178 0.607-0.47 1.2-0.877 1.779-0.407 0.579-0.871 1.091-1.393 1.537v0c-0.836 0.714-1.676 1.074-2.519 1.079-0.843 0.006-1.617-0.405-2.322-1.231v0l-2.968-3.478c-0.78-0.914-1.104-1.869-0.972-2.864 0.141-0.995 0.682-1.894 1.621-2.696v0c0.94-0.802 1.884-1.175 2.833-1.119 0.958 0.057 1.819 0.531 2.581 1.424v0l2.201 2.579zM38.092 24.399c-0.286-0.336-0.617-0.504-0.993-0.505-0.366 0-0.706 0.134-1.021 0.403v0c-0.434 0.37-0.649 0.75-0.647 1.141 0.003 0.39 0.121 0.722 0.355 0.995v0l0.866 1.015 2.207-2.151z" fill="#27272a" data-fill-palette-color="accent"></path><path d="M53.612 19.386c0.126 0.233 0.365 0.389 0.717 0.469 0.358 0.077 0.785-0.019 1.28-0.287v0c0.43-0.233 0.706-0.521 0.829-0.866 0.117-0.341 0.097-0.655-0.058-0.941v0c-0.22-0.406-0.529-0.628-0.928-0.667-0.399-0.039-0.99 0.003-1.773 0.126v0c-0.661 0.119-1.224 0.184-1.689 0.196-0.467 0.021-0.944-0.076-1.43-0.291-0.484-0.209-0.912-0.595-1.286-1.157v0c-0.275-0.422-0.428-0.919-0.458-1.488-0.027-0.564 0.137-1.131 0.491-1.702 0.358-0.58 0.943-1.089 1.755-1.528v0c0.418-0.226 0.809-0.38 1.174-0.462 0.368-0.091 0.668-0.142 0.902-0.152 0.228-0.007 0.37-0.007 0.428 0v0l0.454 2.336c-0.037-0.011-0.131-0.022-0.284-0.032-0.152-0.01-0.362 0.015-0.631 0.075-0.274 0.064-0.573 0.183-0.895 0.357v0c-0.71 0.384-0.959 0.774-0.745 1.168v0c0.042 0.078 0.099 0.147 0.17 0.208v0c0.136 0.166 0.356 0.244 0.659 0.234 0.301-0.001 0.728-0.039 1.281-0.114v0c0.765-0.113 1.429-0.175 1.994-0.188 0.562-0.003 1.125 0.132 1.69 0.406 0.562 0.283 1.033 0.776 1.415 1.48v0c0.291 0.537 0.434 1.108 0.429 1.713-0.014 0.602-0.213 1.196-0.599 1.783-0.388 0.581-0.988 1.09-1.8 1.529v0c-0.746 0.404-1.46 0.624-2.143 0.662-0.682 0.037-1.277-0.077-1.783-0.343-0.507-0.266-0.909-0.646-1.208-1.141v0z" fill="#27272a" data-fill-palette-color="accent"></path><path d="M72.428 15.079c-2.167 0.645-3.57-0.038-4.208-2.051v0l-3.833-12.072 2.387-0.758 1.344 4.231 2.018-0.641 0.179 2.347-1.504 0.478 1.796 5.658c0.152 0.479 0.387 0.76 0.706 0.844 0.323 0.075 0.734 0.034 1.232-0.124v0z" fill="#27272a" data-fill-palette-color="accent"></path><path d="M91.398 7.365c0.146 1.24-0.074 2.305-0.66 3.194-0.585 0.896-1.562 1.424-2.93 1.585v0c-1.375 0.162-2.462-0.127-3.259-0.867-0.797-0.733-1.268-1.713-1.412-2.941v0l-0.344-2.922c-0.165-1.402 0.066-2.52 0.693-3.352 0.627-0.826 1.615-1.318 2.963-1.476v0c1.281-0.151 2.331 0.116 3.149 0.798 0.812 0.69 1.298 1.71 1.457 3.058v0zM88.638 4.727c-0.092-0.782-0.314-1.272-0.665-1.47-0.351-0.198-0.763-0.269-1.235-0.214v0c-1.153 0.136-1.655 0.83-1.508 2.084v0l0.37 3.145c0.069 0.587 0.281 0.996 0.636 1.227 0.354 0.225 0.785 0.308 1.29 0.248v0c0.485-0.057 0.87-0.242 1.155-0.556 0.284-0.32 0.392-0.76 0.327-1.32v0z" fill="#27272a" data-fill-palette-color="accent"></path><path d="M102.045 11.722l1.054-11.12 2.261 0.214 0.175 0.099c0.621-0.146 1.198-0.193 1.731-0.143v0c0.372 0.035 0.905 0.161 1.601 0.377v0l0.438 0.123-0.803 2.327c-0.392-0.249-0.788-0.392-1.187-0.429v0c-0.554-0.053-1.036 0.069-1.446 0.364-0.417 0.301-0.652 0.726-0.703 1.273v0l-0.678 7.146z" fill="#27272a" data-fill-palette-color="accent"></path><path d="M128.251 17.983l2.14-6.435c0.253-0.76 0.333-1.345 0.24-1.755-0.095-0.403-0.368-0.68-0.819-0.83v0c-0.322-0.107-0.792-0.156-1.41-0.147v0l-0.409 0.036c-0.002 0.092-0.012 0.196-0.029 0.312-0.026 0.12-0.055 0.229-0.086 0.326v0l-2.506 7.536-2.329-0.774 2.117-6.367c0.236-0.709 0.256-1.306 0.06-1.794-0.202-0.489-0.577-0.825-1.124-1.007v0c-0.496-0.165-1.063-0.182-1.7-0.05v0l-2.696 8.106-2.328-0.774 3.524-10.599 2.048 0.681 0.232 0.238c0.534-0.058 1.098 0.011 1.691 0.208v0c0.483 0.161 0.923 0.396 1.32 0.707 0.397 0.311 0.705 0.699 0.922 1.165v0c0.236-0.043 0.584-0.099 1.043-0.168v0c0.964-0.102 1.832-0.024 2.605 0.233v0c1.005 0.334 1.721 0.912 2.149 1.734 0.434 0.824 0.47 1.78 0.109 2.869v0l-2.435 7.323z" fill="#27272a" data-fill-palette-color="accent"></path><path d="M156.332 37.128l4.701-5.013-3.432-3.218-4.701 5.014-1.79-1.678 10.676-11.387 1.79 1.678-4.373 4.665 3.432 3.217 4.373-4.664 1.775 1.664-10.676 11.387z" fill="#27272a" data-fill-palette-color="accent"></path><path d="M167.77 52.001l0.027-0.2c-0.037-0.032-0.187-0.138-0.448-0.315-0.26-0.187-0.519-0.48-0.778-0.879v0c-1.525-2.344-1.148-4.258 1.134-5.743v0l6.144-3.999 1.339 2.057-5.846 3.804c-0.575 0.374-0.932 0.752-1.072 1.135-0.14 0.383-0.026 0.855 0.34 1.419v0c0.363 0.558 0.756 0.832 1.18 0.823 0.429-0.012 0.926-0.202 1.489-0.568v0l5.769-3.754 1.339 2.056-9.362 6.093z" fill="#27272a" data-fill-palette-color="accent"></path><path d="M179.76 69.855c-0.71 0.271-1.362 0.353-1.955 0.246-0.6-0.105-1.122-0.36-1.567-0.764v0c-0.392-0.359-0.721-0.746-0.988-1.159-0.267-0.414-0.499-0.878-0.695-1.392v0c-0.196-0.514-0.42-1.242-0.672-2.185v0l-0.331-1.181 14.581-5.572 0.876 2.293-4.166 1.592c0.372 0.555 0.654 1.084 0.845 1.584v0c0.271 0.71 0.381 1.417 0.33 2.119v0c-0.088 1.385-0.862 2.357-2.32 2.914v0zM182.183 66.324c0.628-0.24 1.009-0.582 1.144-1.026 0.139-0.453 0.113-0.93-0.078-1.431v0c-0.107-0.279-0.242-0.529-0.406-0.749-0.167-0.227-0.318-0.376-0.454-0.448v0l-5.964 2.279c0.02 0.261 0.094 0.56 0.223 0.896v0c0.223 0.583 0.531 1.065 0.923 1.446 0.392 0.381 0.82 0.482 1.283 0.305v0z" fill="#27272a" data-fill-palette-color="accent"></path><path d="M4.169 122.641l15.122-4.692 2.239 7.216-2.373 0.736-1.499-4.833-3.832 1.189 0.938 3.024-2.507-0.075-0.697-2.246-6.651 2.063z" fill="#27272a" data-fill-palette-color="accent"></path><path d="M23.907 135.792c-0.169-0.325-0.196-0.671-0.081-1.037 0.115-0.366 0.333-0.632 0.652-0.799v0c0.307-0.16 0.641-0.181 1.001-0.062 0.36 0.119 0.625 0.34 0.794 0.666v0c0.16 0.307 0.184 0.639 0.071 0.996-0.116 0.351-0.327 0.607-0.634 0.766v0c-0.319 0.166-0.659 0.198-1.019 0.094-0.363-0.109-0.625-0.318-0.784-0.624zM11.424 140.81l10.052-5.233 1.147 2.203-10.051 5.234z" fill="#27272a" data-fill-palette-color="accent"></path><path d="M19.972 154.145l8.884-7.035 1.428 1.804 0.042 0.2c0.548 0.354 0.991 0.743 1.329 1.169v0c0.232 0.293 0.515 0.77 0.848 1.432v0l0.213 0.416-2.267 1.042c-0.096-0.461-0.271-0.851-0.523-1.17v0c-0.35-0.442-0.778-0.709-1.284-0.801-0.51-0.098-0.984 0.026-1.421 0.371v0l-5.707 4.52z" fill="#27272a" data-fill-palette-color="accent"></path><path d="M35.91 165.254l-0.41 0.48c-0.273 0.32-0.397 0.647-0.371 0.982 0.025 0.325 0.211 0.636 0.557 0.932v0c0.526 0.45 1.427 0.822 2.702 1.117v0l-0.707 2.222c-0.638-0.09-1.279-0.29-1.925-0.6-0.645-0.311-1.234-0.693-1.765-1.148v0c-0.846-0.723-1.341-1.508-1.484-2.353-0.134-0.847 0.157-1.688 0.871-2.524v0l3.01-3.522c0.794-0.929 1.7-1.404 2.719-1.426 1.019-0.022 2.003 0.373 2.952 1.184v0c0.955 0.816 1.479 1.706 1.575 2.672 0.095 0.965-0.244 1.899-1.016 2.802v0l-2.236 2.616zM40.681 164.483c0.295-0.346 0.412-0.702 0.35-1.067-0.063-0.375-0.255-0.7-0.575-0.973v0c-0.433-0.37-0.845-0.526-1.235-0.467-0.395 0.065-0.709 0.234-0.943 0.507v0l-0.879 1.03 2.508 1.876z" fill="#27272a" data-fill-palette-color="accent"></path><path d="M51.127 176.968c-0.129 0.239-0.13 0.532-0.002 0.879 0.134 0.351 0.452 0.662 0.954 0.933v0c0.436 0.236 0.833 0.309 1.191 0.218 0.358-0.091 0.617-0.283 0.775-0.576v0c0.223-0.412 0.239-0.797 0.047-1.156-0.192-0.359-0.554-0.837-1.087-1.434v0c-0.467-0.492-0.838-0.933-1.113-1.322-0.27-0.386-0.449-0.846-0.537-1.38-0.086-0.525 0.006-1.101 0.276-1.727v0c0.201-0.47 0.536-0.875 1.006-1.215 0.464-0.343 1.039-0.521 1.726-0.535 0.687-0.014 1.439 0.201 2.257 0.644v0c0.43 0.233 0.781 0.481 1.055 0.746 0.277 0.258 0.485 0.487 0.624 0.686 0.136 0.19 0.215 0.309 0.234 0.358v0l-1.732 1.679c-0.011-0.037-0.054-0.122-0.128-0.255-0.075-0.133-0.212-0.3-0.412-0.501-0.203-0.195-0.472-0.383-0.806-0.564v0c-0.71-0.385-1.174-0.378-1.39 0.022v0c-0.042 0.078-0.074 0.165-0.096 0.261v0c-0.059 0.208-0.002 0.439 0.169 0.694 0.171 0.255 0.439 0.593 0.804 1.015v0c0.521 0.591 0.942 1.125 1.264 1.6 0.315 0.472 0.511 1.022 0.588 1.65 0.079 0.637-0.075 1.314-0.464 2.031v0c-0.294 0.543-0.704 0.977-1.228 1.303-0.518 0.329-1.129 0.488-1.833 0.477-0.708-0.005-1.473-0.231-2.297-0.678v0c-0.758-0.411-1.342-0.893-1.751-1.447-0.41-0.554-0.643-1.121-0.7-1.7-0.057-0.579 0.044-1.135 0.301-1.667v0z" fill="#27272a" data-fill-palette-color="accent"></path><path d="M68.759 188.132c-2.165-0.74-2.923-2.129-2.273-4.166v0l3.904-12.243 2.415 0.771-1.367 4.287 2.047 0.653-1.232 2.054-1.523-0.485-1.828 5.733c-0.155 0.485-0.123 0.855 0.095 1.11 0.22 0.248 0.582 0.453 1.086 0.613v0z" fill="#27272a" data-fill-palette-color="accent"></path><path d="M90.982 187.557c-0.15 1.26-0.618 2.261-1.404 3.001-0.792 0.74-1.883 1.027-3.271 0.861v0c-1.395-0.166-2.397-0.706-3.006-1.62-0.616-0.914-0.849-1.995-0.7-3.241v0l0.353-2.963c0.17-1.422 0.663-2.467 1.481-3.135 0.818-0.668 1.908-0.921 3.269-0.759v0c1.301 0.155 2.272 0.667 2.914 1.537 0.641 0.876 0.88 1.995 0.717 3.357v0zM88.889 184.303c0.095-0.795-0.009-1.331-0.311-1.606-0.301-0.282-0.691-0.452-1.17-0.509v0c-1.166-0.139-1.825 0.428-1.977 1.703v0l-0.38 3.184c-0.072 0.6 0.042 1.054 0.34 1.364 0.291 0.308 0.693 0.493 1.206 0.554v0c0.492 0.059 0.917-0.034 1.274-0.279 0.357-0.245 0.57-0.653 0.638-1.226v0z" fill="#27272a" data-fill-palette-color="accent"></path><path d="M102.916 191.452l-1.049-11.283 2.291-0.214 0.191 0.075c0.596-0.267 1.164-0.425 1.704-0.476v0c0.372-0.035 0.926-0.011 1.663 0.07v0l0.465 0.049-0.364 2.468c-0.439-0.171-0.861-0.237-1.266-0.2v0c-0.561 0.052-1.018 0.265-1.372 0.639-0.361 0.374-0.515 0.839-0.463 1.393v0l0.674 7.249z" fill="#27272a" data-fill-palette-color="accent"></path><path d="M131.734 184.678l-2.157-6.525c-0.256-0.773-0.544-1.3-0.866-1.58-0.319-0.273-0.708-0.334-1.165-0.183v0c-0.335 0.111-0.747 0.358-1.235 0.741v0l-0.316 0.276c0.06 0.073 0.116 0.166 0.167 0.277 0.051 0.112 0.093 0.216 0.124 0.313v0l2.529 7.647-2.359 0.78-2.138-6.468c-0.237-0.715-0.583-1.212-1.04-1.49-0.463-0.276-0.972-0.322-1.526-0.139v0c-0.503 0.166-0.973 0.497-1.409 0.992v0l2.72 8.227-2.369 0.783-3.557-10.76 2.088-0.69 0.331 0.062c0.398-0.375 0.897-0.661 1.496-0.86v0c0.49-0.162 0.991-0.235 1.505-0.218 0.511 0.01 0.997 0.139 1.457 0.387v0c0.161-0.182 0.412-0.44 0.752-0.775v0c0.716-0.666 1.468-1.129 2.254-1.388v0c1.018-0.337 1.95-0.298 2.795 0.116 0.849 0.406 1.456 1.159 1.82 2.261v0l2.458 7.435z" fill="#27272a" data-fill-palette-color="accent"></path><path d="M163.951 163.116l-4.755-5.089-3.482 3.254 4.755 5.089-1.823 1.703-10.809-11.569 1.823-1.703 4.435 4.746 3.482-3.253-4.435-4.747 1.8-1.682 10.809 11.569z" fill="#27272a" data-fill-palette-color="accent"></path><path d="M177.152 146.172l-0.2 0.064c-0.011 0.042-0.049 0.224-0.113 0.546-0.067 0.313-0.232 0.672-0.495 1.075v0c-1.551 2.376-3.48 2.811-5.788 1.304v0l-6.233-4.068 1.358-2.081 5.926 3.869c0.585 0.382 1.083 0.557 1.493 0.525 0.416-0.029 0.809-0.327 1.18-0.896v0c0.371-0.568 0.464-1.047 0.28-1.434-0.19-0.392-0.569-0.773-1.138-1.144v0l-5.849-3.818 1.364-2.089 9.49 6.194z" fill="#27272a" data-fill-palette-color="accent"></path><path d="M183.667 123.653c0.722 0.277 1.27 0.658 1.644 1.144 0.382 0.481 0.603 1.024 0.662 1.628v0c0.055 0.537 0.042 1.056-0.04 1.555-0.074 0.495-0.21 1.003-0.41 1.522v0c-0.199 0.52-0.526 1.219-0.981 2.1v0l-0.549 1.12-14.782-5.674 0.894-2.329 4.221 1.62c0.097-0.668 0.242-1.256 0.436-1.763v0c0.277-0.722 0.674-1.33 1.191-1.822v0c1.005-0.989 2.245-1.199 3.722-0.633v0zM179.448 124.673c-0.634-0.243-1.155-0.24-1.564 0.011-0.406 0.244-0.707 0.619-0.901 1.126v0c-0.109 0.285-0.178 0.568-0.206 0.848-0.028 0.28-0.015 0.492 0.039 0.637v0l6.046 2.32c0.16-0.208 0.305-0.483 0.436-0.824v0c0.226-0.589 0.318-1.161 0.277-1.716-0.033-0.558-0.281-0.926-0.743-1.103v0z" fill="#27272a" data-fill-palette-color="accent"></path><path d="M0.027 95.979c0-3.34 2.708-6.048 6.049-6.048 3.34 0 6.048 2.708 6.048 6.048 0 3.34-2.708 6.048-6.048 6.048-3.34 0-6.048-2.708-6.049-6.048z" fill="#27272a" data-fill-palette-color="accent"></path><path d="M179.566 95.979c0-3.34 2.708-6.048 6.048-6.048 3.34 0 6.048 2.708 6.048 6.048 0 3.34-2.708 6.048-6.048 6.048-3.34 0-6.048-2.708-6.048-6.048z" fill="#27272a" data-fill-palette-color="accent"></path></g><g id="text-1"></g></svg></g></svg></g></svg></g><defs></defs></svg><rect width="395.52" height="122.57518505497042" fill="none" stroke="none" visibility="hidden"></rect></g></svg></g></svg>